<svg width="27" height="21" viewBox="0 0 27 21" fill="none" xmlns="http://www.w3.org/2000/svg">
<path fill-rule="evenodd" clip-rule="evenodd" d="M0.162039 1.2964C0.323384 0.912629 0.596631 0.584619 0.947217 0.353858C1.2978 0.123097 1.70998 -4.71415e-05 2.13161 1.35375e-08H16.3421C19.1688 1.35375e-08 21.8796 1.10625 23.8784 3.07538C25.8771 5.04451 27 7.71523 27 10.5C27 13.2848 25.8771 15.9555 23.8784 17.9246C21.8796 19.8938 19.1688 21 16.3421 21H3.55267C2.98734 21 2.44516 20.7787 2.04541 20.3849C1.64567 19.9911 1.42109 19.457 1.42109 18.9C1.42109 18.343 1.64567 17.8089 2.04541 17.4151C2.44516 17.0212 2.98734 16.8 3.55267 16.8H16.3421C18.0381 16.8 19.6646 16.1363 20.8639 14.9548C22.0631 13.7733 22.7368 12.1709 22.7368 10.5C22.7368 8.82914 22.0631 7.22671 20.8639 6.04523C19.6646 4.86375 18.0381 4.2 16.3421 4.2H7.27724L8.61303 5.516C9.00113 5.91224 9.21573 6.44281 9.21061 6.99342C9.20549 7.54404 8.98106 8.07064 8.58566 8.45982C8.19026 8.84899 7.65553 9.0696 7.09663 9.07412C6.53773 9.07864 5.99939 8.86672 5.59756 8.484L0.62388 3.584C0.326006 3.29037 0.123155 2.91634 0.0409529 2.50918C-0.0412489 2.10201 0.000887669 1.67998 0.162039 1.2964Z" fill="#E8D28E"/>
</svg>
