<svg width="12" height="12" viewBox="0 0 12 12" fill="none" xmlns="http://www.w3.org/2000/svg">
<path fill-rule="evenodd" clip-rule="evenodd" d="M6.34586 0.00142049C5.44223 -0.0175778 4.54519 0.154192 3.71738 0.504738C2.88957 0.855283 2.15093 1.37616 1.55303 2.03099C0.955135 2.68583 0.51239 3.45885 0.255709 4.29607C-0.000972532 5.1333 -0.0654053 6.01457 0.066909 6.87834C0.199223 7.74211 0.525096 8.56758 1.02178 9.2971C1.51846 10.0266 2.17397 10.6426 2.94256 11.1021C3.71115 11.5616 4.57429 11.8535 5.47172 11.9574C6.36914 12.0613 7.27923 11.9747 8.13844 11.7037C8.28524 11.6573 8.40698 11.5565 8.47686 11.4235C8.54675 11.2904 8.55906 11.136 8.51108 10.9942C8.46311 10.8523 8.35878 10.7347 8.22105 10.6672C8.08332 10.5997 7.92347 10.5878 7.77666 10.6342C6.84296 10.9287 5.84058 10.9536 4.89245 10.7058C3.94431 10.458 3.09165 9.94824 2.43903 9.23909C1.78641 8.52994 1.3622 7.65221 1.21843 6.71354C1.07466 5.77487 1.21758 4.81607 1.62966 3.95472C2.04173 3.09338 2.70506 2.36694 3.53828 1.86449C4.37149 1.36204 5.33839 1.10543 6.32037 1.12613C7.30235 1.14683 8.25674 1.44393 9.06648 1.98101C9.87623 2.51808 10.5061 3.27178 10.8789 4.14967C10.9375 4.28772 11.0504 4.39763 11.1929 4.45522C11.2634 4.48374 11.3391 4.49856 11.4156 4.49883C11.492 4.4991 11.5678 4.48482 11.6386 4.4568C11.7093 4.42877 11.7737 4.38756 11.8279 4.33552C11.8822 4.28347 11.9253 4.22161 11.9549 4.15347C11.9844 4.08532 11.9997 4.01222 12 3.93835C12.0003 3.86448 11.9855 3.79127 11.9565 3.72292C11.4977 2.64239 10.7224 1.7147 9.7258 1.05365C8.72917 0.392587 7.5545 0.0268946 6.34586 0.00142049ZM6.79226 2.81242C6.79226 2.66324 6.73092 2.52016 6.62172 2.41467C6.51253 2.30918 6.36443 2.24992 6.21 2.24992C6.05558 2.24992 5.90748 2.30918 5.79829 2.41467C5.68909 2.52016 5.62775 2.66324 5.62775 2.81242V5.76742L4.04867 7.29217C3.99146 7.34367 3.94558 7.40577 3.91376 7.47477C3.88193 7.54377 3.86482 7.61825 3.86344 7.69378C3.86206 7.76931 3.87644 7.84433 3.90573 7.91437C3.93501 7.98441 3.9786 8.04803 4.03389 8.10145C4.08918 8.15486 4.15504 8.19697 4.22754 8.22526C4.30004 8.25355 4.3777 8.26745 4.45588 8.26611C4.53406 8.26478 4.61116 8.24825 4.68258 8.21751C4.754 8.18676 4.81829 8.14244 4.87159 8.08717L6.62147 6.39742L6.79226 6.23242V2.81242ZM11.6444 11.2499C11.6444 11.4488 11.5626 11.6396 11.417 11.7802C11.2714 11.9209 11.074 11.9999 10.8681 11.9999C10.6622 11.9999 10.4647 11.9209 10.3191 11.7802C10.1735 11.6396 10.0917 11.4488 10.0917 11.2499C10.0917 11.051 10.1735 10.8602 10.3191 10.7196C10.4647 10.5789 10.6622 10.4999 10.8681 10.4999C11.074 10.4999 11.2714 10.5789 11.417 10.7196C11.5626 10.8602 11.6444 11.051 11.6444 11.2499ZM11.4503 6.56242C11.4503 6.41324 11.389 6.27016 11.2798 6.16467C11.1706 6.05918 11.0225 5.99992 10.8681 5.99992C10.7136 5.99992 10.5655 6.05918 10.4563 6.16467C10.3471 6.27016 10.2858 6.41324 10.2858 6.56242V9.18742C10.2858 9.3366 10.3471 9.47968 10.4563 9.58517C10.5655 9.69066 10.7136 9.74992 10.8681 9.74992C11.0225 9.74992 11.1706 9.69066 11.2798 9.58517C11.389 9.47968 11.4503 9.3366 11.4503 9.18742V6.56242Z" fill="#E48D26"/>
</svg>
