<svg width="17" height="17" viewBox="0 0 17 17" fill="none" xmlns="http://www.w3.org/2000/svg">
<path d="M8.33333 0C3.73833 0 0 3.73833 0 8.33333C0 12.9283 3.73833 16.6667 8.33333 16.6667C12.9283 16.6667 16.6667 12.9283 16.6667 8.33333C16.6667 3.73833 12.9283 0 8.33333 0ZM1.66667 8.33333C1.66667 7.58417 1.79667 6.865 2.02583 6.1925L3.33333 7.5L5 9.16667V10.8333L6.66667 12.5L7.5 13.3333V14.9425C4.2175 14.53 1.66667 11.7267 1.66667 8.33333ZM13.6083 12.3942C13.0642 11.9558 12.2392 11.6667 11.6667 11.6667V10.8333C11.6667 10.3913 11.4911 9.96738 11.1785 9.65482C10.8659 9.34226 10.442 9.16667 10 9.16667H6.66667V6.66667C7.10869 6.66667 7.53262 6.49107 7.84518 6.17851C8.15774 5.86595 8.33333 5.44203 8.33333 5V4.16667H9.16667C9.60869 4.16667 10.0326 3.99107 10.3452 3.67851C10.6577 3.36595 10.8333 2.94203 10.8333 2.5V2.1575C13.2733 3.14833 15 5.54167 15 8.33333C14.9998 9.80392 14.5102 11.2326 13.6083 12.3942Z" fill="#E8D28E"/>
</svg>
